<svg t="1614735789216" class="icon" viewBox="0 0 1024 1024" version="1.1" xmlns="http://www.w3.org/2000/svg" p-id="2098" width="32" height="32"><path d="M496.9472 144.930133c12.834133-13.243733 36.864-10.001067 48.128 3.959467 25.6 24.917333 59.392 38.161067 92.16 50.756267 72.8064 22.6304 150.186667 29.969067 225.9968 22.391466 6.382933 40.106667 1.672533 80.896 3.072 121.173334-1.262933 60.3136 3.310933 121.378133-5.905067 181.1456-17.954133 74.786133-51.6096 145.476267-101.717333 204.117333-16.9984 13.073067-31.505067 29.115733-48.264533 42.564267-52.770133 43.554133-116.292267 71.7824-180.736 93.354666-21.504 5.632-41.3696-6.2464-60.893867-13.380266-64.443733-24.098133-124.7232-59.767467-174.421333-107.690667-64.682667-61.952-103.1168-147.319467-120.388267-234.359467-4.676267-67.584-2.56-135.3728-3.003733-203.0592 0.580267-27.921067-2.389333-56.2176 3.072-83.8656 65.774933 6.621867 132.437333 1.809067 196.676266-14.199466 45.8752-11.195733 91.511467-29.969067 126.225067-62.907734m-255.761067 133.12c-3.413333 3.310933-10.069333 9.8304-13.380266 13.141334 0.3072 49.800533 0 99.669333 0.068266 149.504 4.3008 70.7584 19.012267 143.906133 63.522134 201.1136 51.2 79.598933 133.768533 136.430933 223.914666 162.7136 122.641067-30.993067 228.522667-124.1088 272.315734-243.2 30.856533-87.04 19.285333-180.224 22.289066-270.677334-12.970667-17.851733-35.9424-12.526933-54.8864-14.165333-83.421867-4.1984-168.789333-23.04-237.6704-72.465067-78.097067 60.074667-180.804267 71.850667-276.1728 74.069334z m168.209067 139.844267c-9.3184-59.869867 45.738667-117.828267 105.642667-113.5616 62.702933-0.750933 115.882667 66.833067 96.597333 127.522133-8.533333 36.727467-40.0384 61.952-73.9328 74.717867 0.546133 14.336 0.682667 28.740267 0.853333 43.1104 26.043733 2.389333 75.537067-13.073067 76.4928 26.7264-7.133867 37.000533-52.087467 20.650667-78.2336 24.917333 1.706667 29.9008 4.778667 60.6208-3.140266 89.975467-15.5648 10.205867-41.301333 10.274133-46.7968-11.0592-1.877333-57.890133-0.238933-115.848533-0.6144-173.841067-39.1168-12.9024-73.4208-45.8752-76.868267-88.507733m71.918933-61.44c-30.378667 17.066667-39.253333 61.883733-14.472533 87.552 27.0336 34.167467 87.04 23.278933 100.522667-18.090667 20.957867-48.503467-42.939733-100.488533-86.016-69.461333z" p-id="2099"></path></svg>
